<svg id="svg" version="1.1" xmlns="http://www.w3.org/2000/svg" xmlns:xlink="http://www.w3.org/1999/xlink" width="400" height="400" viewBox="0, 0, 400,400"><g id="svgg"><path id="path0" d="M166.470 114.426 C 164.198 114.550,162.218 114.837,162.070 115.064 C 161.921 115.291,161.308 115.597,160.708 115.744 C 160.107 115.891,158.937 116.650,158.108 117.431 C 155.626 119.768,155.448 119.906,154.200 120.459 C 153.540 120.751,152.779 121.201,152.508 121.459 C 152.237 121.716,151.304 122.047,150.433 122.194 C 148.325 122.551,146.885 123.969,146.163 126.401 C 145.836 127.501,145.392 128.400,145.175 128.400 C 144.958 128.400,144.609 128.850,144.400 129.400 C 144.191 129.950,143.740 130.400,143.397 130.400 C 143.055 130.400,142.676 130.657,142.555 130.972 C 142.435 131.287,141.810 131.727,141.168 131.951 C 140.526 132.175,140.000 132.605,140.000 132.907 C 140.000 133.603,137.532 136.400,136.918 136.400 C 136.665 136.400,136.154 136.704,135.783 137.075 C 134.911 137.947,124.070 138.526,115.552 138.156 C 109.751 137.905,102.800 138.482,102.800 139.216 C 102.800 139.399,102.233 139.606,101.540 139.675 C 100.806 139.748,100.097 140.125,99.840 140.578 C 99.598 141.006,99.085 141.715,98.700 142.154 C 98.315 142.592,98.000 143.126,98.000 143.340 C 98.000 143.936,95.686 145.867,94.267 146.455 C 92.378 147.237,91.600 148.054,91.600 149.256 C 91.600 149.848,91.375 150.408,91.100 150.500 C 90.365 150.745,90.365 272.455,91.100 272.700 C 91.375 272.792,91.600 273.404,91.600 274.060 C 91.600 275.674,92.263 276.800,93.214 276.800 C 93.646 276.800,94.000 276.968,94.000 277.173 C 94.000 277.378,94.358 277.660,94.796 277.799 C 95.891 278.146,98.800 280.810,98.800 281.466 C 98.800 281.760,98.970 282.000,99.178 282.000 C 99.386 282.000,99.793 282.495,100.083 283.099 C 100.486 283.940,101.032 284.285,102.405 284.568 C 103.392 284.772,104.328 285.132,104.485 285.369 C 104.890 285.980,295.510 285.980,295.915 285.369 C 296.072 285.132,296.991 284.772,297.958 284.569 C 299.033 284.344,299.889 283.889,300.158 283.400 C 300.401 282.960,300.825 282.456,301.100 282.280 C 301.375 282.104,301.600 281.755,301.600 281.503 C 301.600 280.895,304.605 278.116,305.607 277.798 C 306.043 277.659,306.400 277.378,306.400 277.173 C 306.400 276.968,306.754 276.800,307.186 276.800 C 308.137 276.800,308.800 275.674,308.800 274.060 C 308.800 273.404,309.025 272.792,309.300 272.700 C 310.035 272.455,310.035 150.745,309.300 150.500 C 309.025 150.408,308.800 149.848,308.800 149.256 C 308.800 148.051,308.022 147.237,306.115 146.448 C 304.413 145.743,302.783 144.132,301.800 142.185 C 300.803 140.210,300.103 139.629,298.700 139.613 C 298.095 139.606,297.600 139.442,297.600 139.249 C 297.600 138.459,291.147 137.900,284.889 138.147 C 277.533 138.437,265.685 137.966,265.279 137.367 C 265.126 137.140,264.411 136.716,263.692 136.425 C 262.973 136.134,262.079 135.380,261.706 134.748 C 261.333 134.117,260.886 133.600,260.714 133.600 C 260.541 133.600,260.400 133.326,260.400 132.991 C 260.400 132.657,259.905 132.165,259.300 131.900 C 258.695 131.634,258.056 131.188,257.880 130.908 C 257.704 130.629,257.308 130.400,256.999 130.400 C 256.690 130.400,256.139 129.770,255.773 129.000 C 255.408 128.230,254.958 127.600,254.773 127.600 C 254.588 127.600,254.317 126.962,254.170 126.183 C 253.810 124.263,252.004 122.539,249.997 122.200 C 249.110 122.050,248.163 121.716,247.892 121.459 C 247.621 121.201,246.860 120.751,246.200 120.459 C 244.949 119.905,244.773 119.768,242.271 117.410 C 241.430 116.617,240.215 115.863,239.571 115.734 C 238.927 115.605,238.400 115.354,238.400 115.175 C 238.400 114.342,179.262 113.727,166.470 114.426 M219.515 159.021 C 219.672 159.252,220.614 159.746,221.608 160.118 C 222.946 160.620,223.622 161.180,224.208 162.276 C 225.473 164.639,227.590 166.400,229.166 166.400 C 229.593 166.400,230.181 166.632,230.471 166.915 C 230.762 167.199,231.635 167.728,232.411 168.092 C 233.392 168.552,233.981 169.191,234.341 170.189 C 234.846 171.584,236.510 173.600,237.157 173.600 C 238.164 173.600,239.980 174.987,240.437 176.106 C 240.728 176.818,241.182 177.621,241.447 177.892 C 241.711 178.163,242.049 179.108,242.199 179.992 C 242.348 180.876,242.684 181.735,242.945 181.900 C 243.206 182.065,243.734 182.695,244.119 183.300 C 244.504 183.905,245.019 184.400,245.263 184.400 C 246.527 184.400,248.222 187.131,248.616 189.800 C 248.778 190.900,249.111 191.928,249.356 192.085 C 249.970 192.480,249.985 223.506,249.370 223.914 C 249.134 224.071,248.698 225.084,248.401 226.164 C 248.013 227.574,247.259 228.758,245.730 230.362 C 244.559 231.591,243.600 232.823,243.600 233.098 C 243.600 233.374,243.429 233.600,243.220 233.600 C 243.012 233.600,242.519 234.635,242.126 235.900 C 241.733 237.165,241.274 238.260,241.106 238.333 C 240.938 238.407,240.800 238.692,240.800 238.968 C 240.800 239.645,237.689 242.400,236.924 242.400 C 236.093 242.400,234.415 244.044,234.407 244.867 C 234.399 245.678,231.668 248.800,230.968 248.800 C 230.692 248.800,230.407 248.938,230.333 249.106 C 230.260 249.274,229.165 249.733,227.900 250.126 C 226.635 250.519,225.600 251.012,225.600 251.220 C 225.600 251.429,225.373 251.600,225.096 251.600 C 224.650 251.600,223.632 252.449,222.119 254.081 C 220.679 255.635,218.050 256.800,215.983 256.800 C 215.369 256.800,214.792 257.025,214.700 257.300 C 214.469 257.993,185.314 258.032,184.885 257.339 C 184.728 257.086,183.721 256.747,182.647 256.586 C 181.572 256.425,180.357 255.957,179.947 255.547 C 179.536 255.136,179.065 254.794,178.900 254.787 C 178.386 254.764,176.974 253.434,176.698 252.712 C 176.553 252.333,175.977 251.909,175.417 251.769 C 174.858 251.628,174.400 251.358,174.400 251.168 C 174.400 250.978,173.410 250.535,172.200 250.183 C 170.990 249.831,170.000 249.415,170.000 249.259 C 170.000 249.103,169.460 248.772,168.800 248.522 C 168.140 248.273,167.600 247.784,167.600 247.435 C 167.600 247.086,167.411 246.800,167.180 246.800 C 166.948 246.800,166.479 246.129,166.136 245.309 C 165.370 243.474,164.499 242.693,162.481 242.027 C 161.467 241.692,160.664 241.071,160.190 240.256 C 159.789 239.565,159.336 238.910,159.183 238.800 C 159.031 238.690,158.607 237.565,158.242 236.300 C 157.877 235.035,157.403 234.000,157.189 234.000 C 156.975 234.000,156.800 233.767,156.800 233.483 C 156.800 233.198,155.909 232.125,154.821 231.097 C 153.000 229.379,151.600 226.737,151.600 225.019 C 151.600 224.715,151.375 224.392,151.100 224.300 C 150.711 224.170,150.600 220.431,150.600 207.400 C 150.600 194.369,150.711 190.630,151.100 190.500 C 151.375 190.408,151.600 189.910,151.600 189.393 C 151.600 187.207,153.636 184.279,155.476 183.817 C 155.984 183.689,156.400 183.313,156.400 182.980 C 156.400 182.647,156.649 182.279,156.953 182.163 C 157.257 182.046,157.814 180.972,158.190 179.775 C 158.567 178.579,159.002 177.600,159.157 177.600 C 159.312 177.600,159.671 176.960,159.954 176.177 C 160.317 175.171,160.898 174.556,161.934 174.077 C 163.823 173.205,165.294 171.745,165.982 170.063 C 166.337 169.192,167.028 168.495,167.964 168.063 C 168.754 167.698,169.638 167.175,169.929 166.900 C 170.219 166.625,170.807 166.400,171.234 166.400 C 172.805 166.400,174.929 164.627,176.141 162.303 C 176.563 161.493,177.509 160.563,178.341 160.141 C 179.143 159.733,179.894 159.276,180.009 159.124 C 180.579 158.370,219.005 158.270,219.515 159.021 M195.100 178.664 C 194.495 178.768,194.000 179.021,194.000 179.227 C 194.000 179.432,193.595 179.608,193.100 179.618 C 191.500 179.649,189.206 180.684,188.364 181.755 C 187.912 182.330,187.328 182.800,187.067 182.800 C 186.806 182.800,186.373 183.151,186.105 183.580 C 185.837 184.009,184.984 184.479,184.209 184.625 C 183.434 184.770,182.800 185.041,182.800 185.226 C 182.800 185.412,182.215 185.675,181.500 185.810 C 179.401 186.208,177.600 188.092,177.600 189.889 C 177.600 190.390,177.456 190.800,177.280 190.800 C 177.105 190.800,176.717 191.475,176.418 192.300 C 176.120 193.125,175.023 194.636,173.979 195.658 C 172.809 196.804,171.970 198.030,171.791 198.858 C 171.631 199.596,171.297 200.328,171.050 200.485 C 170.448 200.867,170.420 215.507,171.019 215.915 C 171.250 216.072,171.656 216.945,171.922 217.856 C 172.222 218.882,172.823 219.781,173.503 220.221 C 175.102 221.254,176.358 222.694,176.640 223.817 C 176.776 224.358,177.033 224.800,177.212 224.800 C 177.390 224.800,177.652 225.385,177.793 226.100 C 178.442 229.386,179.123 230.041,182.500 230.628 C 183.325 230.772,184.000 231.037,184.000 231.218 C 184.000 231.398,184.405 231.670,184.900 231.822 C 185.395 231.974,186.754 233.051,187.920 234.217 C 189.565 235.861,190.418 236.400,191.720 236.617 C 192.644 236.772,193.529 237.101,193.686 237.349 C 194.082 237.974,206.318 237.976,206.715 237.350 C 206.872 237.103,207.630 236.767,208.400 236.604 C 209.325 236.409,210.532 235.575,211.959 234.147 C 213.146 232.958,214.541 231.879,215.059 231.749 C 215.577 231.620,216.000 231.364,216.000 231.181 C 216.000 230.998,216.823 230.726,217.830 230.575 C 220.290 230.206,221.874 228.731,222.235 226.473 C 222.387 225.523,222.732 224.525,223.003 224.254 C 223.273 223.984,223.615 223.383,223.763 222.918 C 223.910 222.454,224.993 221.112,226.169 219.937 C 227.579 218.529,228.409 217.323,228.604 216.400 C 228.767 215.630,229.103 214.871,229.350 214.714 C 229.969 214.321,229.976 201.284,229.358 200.885 C 229.114 200.728,228.789 199.910,228.634 199.068 C 228.427 197.943,227.786 196.985,226.228 195.468 C 225.061 194.330,223.979 192.995,223.826 192.500 C 223.672 192.005,223.398 191.600,223.218 191.600 C 223.037 191.600,222.768 190.954,222.620 190.164 C 222.060 187.183,221.298 186.456,218.023 185.785 C 217.265 185.630,216.397 185.254,216.094 184.951 C 215.791 184.648,215.296 184.400,214.994 184.400 C 214.692 184.400,214.210 184.071,213.923 183.668 C 213.635 183.265,212.860 182.592,212.200 182.171 C 211.540 181.751,210.669 181.107,210.265 180.741 C 209.861 180.375,208.872 179.952,208.066 179.801 C 207.261 179.650,206.478 179.327,206.327 179.082 C 206.045 178.626,197.232 178.297,195.100 178.664 " stroke="none" fill="#a5b5c4" fill-rule="evenodd"></path><path id="path1" d="M0.000 200.000 L 0.000 400.000 200.000 400.000 L 400.000 400.000 400.000 200.000 L 400.000 0.000 200.000 0.000 L 0.000 0.000 0.000 200.000 M244.400 109.200 C 244.400 109.420,245.076 109.600,245.903 109.600 C 248.841 109.600,252.400 111.585,252.400 113.225 C 252.400 113.431,252.625 113.606,252.900 113.613 C 253.581 113.631,254.979 114.844,255.307 115.700 C 255.454 116.085,255.914 116.400,256.329 116.400 C 257.907 116.400,259.984 119.178,260.011 121.326 C 260.026 122.512,261.905 124.229,263.526 124.538 C 265.716 124.955,267.205 126.810,267.708 129.749 L 268.143 132.285 272.934 132.542 C 275.569 132.684,283.457 132.800,290.463 132.800 C 298.688 132.800,303.200 132.942,303.200 133.200 C 303.200 133.420,303.656 133.600,304.213 133.600 C 305.519 133.600,308.000 134.635,308.000 135.180 C 308.000 135.411,308.255 135.600,308.568 135.600 C 310.178 135.600,312.800 138.222,312.800 139.832 C 312.800 140.145,313.034 140.400,313.320 140.400 C 313.893 140.400,314.800 142.561,314.800 143.928 C 314.800 144.408,314.980 144.800,315.200 144.800 C 315.465 144.800,315.600 167.333,315.600 211.600 C 315.600 249.281,315.448 278.400,315.252 278.400 C 315.060 278.400,314.788 279.268,314.647 280.329 C 314.409 282.121,313.265 284.000,312.411 284.000 C 312.215 284.000,311.938 284.366,311.796 284.813 C 311.467 285.850,309.861 287.463,308.833 287.789 C 308.397 287.928,307.938 288.364,307.813 288.760 C 307.446 289.916,305.654 290.486,301.700 290.705 C 299.665 290.817,298.000 291.064,298.000 291.255 C 298.000 291.448,254.848 291.600,200.200 291.600 C 145.552 291.600,102.400 291.448,102.400 291.255 C 102.400 291.064,100.735 290.817,98.700 290.705 C 94.746 290.486,92.954 289.916,92.587 288.760 C 92.462 288.364,92.003 287.928,91.567 287.789 C 90.539 287.463,88.933 285.850,88.604 284.813 C 88.462 284.366,88.185 284.000,87.989 284.000 C 87.135 284.000,85.991 282.121,85.753 280.329 C 85.612 279.268,85.340 278.400,85.148 278.400 C 84.952 278.400,84.800 249.281,84.800 211.600 C 84.800 167.333,84.935 144.800,85.200 144.800 C 85.420 144.800,85.600 144.408,85.600 143.928 C 85.600 142.561,86.507 140.400,87.080 140.400 C 87.366 140.400,87.600 140.145,87.600 139.832 C 87.600 138.222,90.222 135.600,91.832 135.600 C 92.145 135.600,92.400 135.411,92.400 135.180 C 92.400 134.598,94.918 133.600,96.387 133.600 C 97.054 133.600,97.600 133.420,97.600 133.200 C 97.600 132.942,102.046 132.800,110.137 132.800 C 117.033 132.800,124.845 132.683,127.499 132.541 L 132.323 132.281 132.590 130.141 C 132.737 128.963,133.005 128.000,133.185 128.000 C 133.366 128.000,133.628 127.542,133.769 126.983 C 133.909 126.423,134.333 125.849,134.712 125.705 C 135.090 125.562,135.638 125.210,135.929 124.922 C 136.219 124.635,136.870 124.400,137.374 124.400 C 138.729 124.400,140.261 122.651,140.506 120.826 C 140.622 119.963,141.095 118.850,141.558 118.353 C 142.021 117.856,142.400 117.332,142.400 117.188 C 142.400 117.044,143.075 116.724,143.900 116.477 C 144.804 116.206,145.559 115.664,145.800 115.114 C 146.020 114.611,146.605 114.022,147.100 113.805 C 147.595 113.588,148.000 113.284,148.000 113.130 C 148.000 111.578,151.642 109.600,154.497 109.600 C 155.324 109.600,156.000 109.420,156.000 109.200 C 156.000 108.936,171.000 108.800,200.200 108.800 C 229.400 108.800,244.400 108.936,244.400 109.200 M163.975 191.419 C 163.808 194.248,163.591 195.225,162.981 195.894 C 162.551 196.364,161.840 197.236,161.400 197.832 C 160.660 198.833,159.535 200.011,157.966 201.428 C 157.618 201.743,157.033 202.000,156.666 202.000 C 156.073 202.000,156.000 202.683,156.000 208.229 C 156.000 214.375,156.245 215.600,157.476 215.600 C 158.220 215.600,159.986 217.687,160.347 218.993 C 160.559 219.761,161.002 220.660,161.332 220.989 C 162.005 221.663,162.800 224.927,162.800 227.020 C 162.800 227.779,162.974 228.400,163.186 228.400 C 163.399 228.400,163.688 229.271,163.829 230.336 C 164.072 232.164,164.145 232.262,165.143 232.082 C 167.257 231.699,168.470 228.930,166.998 227.844 C 166.667 227.600,166.177 226.320,165.909 225.000 C 165.641 223.680,165.261 222.486,165.064 222.347 C 164.867 222.208,164.589 214.378,164.447 204.947 C 164.304 195.516,164.092 189.429,163.975 191.419 M235.875 204.591 C 235.698 213.826,235.412 221.476,235.238 221.591 C 235.065 221.706,234.803 222.700,234.656 223.800 C 234.444 225.390,234.104 226.062,232.995 227.080 C 232.082 227.917,231.600 228.721,231.600 229.408 C 231.600 230.787,230.737 231.600,229.272 231.600 C 228.336 231.600,228.033 231.814,227.832 232.616 C 227.522 233.851,225.541 236.000,224.712 236.000 C 223.901 236.000,224.256 237.956,225.238 238.900 C 226.032 239.663,228.400 239.865,228.400 239.169 C 228.400 238.641,230.595 236.400,231.113 236.400 C 231.319 236.400,231.648 235.455,231.844 234.300 L 232.200 232.200 234.274 231.848 C 236.287 231.506,236.355 231.452,236.609 229.948 C 236.753 229.097,237.034 228.400,237.235 228.400 C 237.436 228.400,237.600 227.689,237.600 226.820 C 237.600 224.676,238.371 221.091,238.938 220.600 C 239.192 220.380,239.652 219.482,239.961 218.604 C 240.549 216.929,242.297 215.013,243.620 214.594 C 244.729 214.242,244.838 204.000,243.734 204.000 C 243.051 204.000,242.637 203.693,240.672 201.728 C 238.796 199.851,238.527 199.464,237.955 197.800 C 237.652 196.920,237.224 196.072,237.004 195.916 C 236.785 195.760,236.513 193.870,236.400 191.716 C 236.284 189.480,236.058 195.002,235.875 204.591 M169.156 233.524 C 168.154 234.575,167.944 236.400,168.825 236.400 C 169.749 236.400,172.000 238.651,172.000 239.575 C 172.000 240.495,173.876 240.228,174.900 239.162 C 175.663 238.368,175.865 236.000,175.169 236.000 C 174.609 236.000,172.400 233.791,172.400 233.231 C 172.400 232.548,169.867 232.777,169.156 233.524 M219.801 240.796 C 219.518 241.689,217.901 242.402,215.519 242.684 C 214.463 242.809,213.600 243.066,213.600 243.256 C 213.600 243.445,207.480 243.600,200.000 243.600 C 191.200 243.600,186.400 243.459,186.400 243.200 C 186.400 242.980,185.940 242.800,185.377 242.800 C 183.671 242.800,180.745 241.922,180.523 241.344 C 179.917 239.764,176.684 241.234,176.318 243.257 C 176.138 244.255,176.236 244.328,178.064 244.571 C 179.129 244.712,180.000 244.975,180.000 245.156 C 180.000 245.337,181.125 245.594,182.500 245.728 C 185.552 246.025,187.529 246.746,187.821 247.668 C 187.942 248.048,188.397 248.472,188.833 248.611 C 189.837 248.929,191.464 250.542,191.778 251.530 C 192.374 253.409,207.296 253.252,208.015 251.360 C 208.442 250.238,210.723 248.000,211.439 248.000 C 211.726 248.000,212.104 247.771,212.280 247.492 C 212.830 246.618,214.865 245.948,217.686 245.712 C 219.179 245.586,220.400 245.346,220.400 245.177 C 220.400 245.008,221.120 244.749,222.000 244.600 C 223.445 244.356,223.600 244.215,223.600 243.148 C 223.600 241.078,220.350 239.066,219.801 240.796 " stroke="none" fill="#e4e4ec" fill-rule="evenodd"></path><path id="path2" d="M156.000 109.200 C 156.000 109.420,155.324 109.600,154.497 109.600 C 151.642 109.600,148.000 111.578,148.000 113.130 C 148.000 113.284,147.595 113.588,147.100 113.805 C 146.605 114.022,146.020 114.611,145.800 115.114 C 145.559 115.664,144.804 116.206,143.900 116.477 C 143.075 116.724,142.400 117.044,142.400 117.188 C 142.400 117.332,142.021 117.856,141.558 118.353 C 141.095 118.850,140.622 119.963,140.506 120.826 C 140.261 122.651,138.729 124.400,137.374 124.400 C 136.870 124.400,136.219 124.635,135.929 124.922 C 135.638 125.210,135.090 125.562,134.712 125.705 C 134.333 125.849,133.909 126.423,133.769 126.983 C 133.628 127.542,133.366 128.000,133.185 128.000 C 133.005 128.000,132.737 128.963,132.590 130.141 L 132.323 132.281 127.499 132.541 C 124.845 132.683,117.033 132.800,110.137 132.800 C 102.046 132.800,97.600 132.942,97.600 133.200 C 97.600 133.420,97.054 133.600,96.387 133.600 C 94.918 133.600,92.400 134.598,92.400 135.180 C 92.400 135.411,92.145 135.600,91.832 135.600 C 90.222 135.600,87.600 138.222,87.600 139.832 C 87.600 140.145,87.366 140.400,87.080 140.400 C 86.507 140.400,85.600 142.561,85.600 143.928 C 85.600 144.408,85.420 144.800,85.200 144.800 C 84.935 144.800,84.800 167.333,84.800 211.600 C 84.800 249.281,84.952 278.400,85.148 278.400 C 85.340 278.400,85.612 279.268,85.753 280.329 C 85.991 282.121,87.135 284.000,87.989 284.000 C 88.185 284.000,88.462 284.366,88.604 284.813 C 88.933 285.850,90.539 287.463,91.567 287.789 C 92.003 287.928,92.462 288.364,92.587 288.760 C 92.954 289.916,94.746 290.486,98.700 290.705 C 100.735 290.817,102.400 291.064,102.400 291.255 C 102.400 291.448,145.552 291.600,200.200 291.600 C 254.848 291.600,298.000 291.448,298.000 291.255 C 298.000 291.064,299.665 290.817,301.700 290.705 C 305.654 290.486,307.446 289.916,307.813 288.760 C 307.938 288.364,308.397 287.928,308.833 287.789 C 309.861 287.463,311.467 285.850,311.796 284.813 C 311.938 284.366,312.215 284.000,312.411 284.000 C 313.265 284.000,314.409 282.121,314.647 280.329 C 314.788 279.268,315.060 278.400,315.252 278.400 C 315.448 278.400,315.600 249.281,315.600 211.600 C 315.600 167.333,315.465 144.800,315.200 144.800 C 314.980 144.800,314.800 144.408,314.800 143.928 C 314.800 142.561,313.893 140.400,313.320 140.400 C 313.034 140.400,312.800 140.145,312.800 139.832 C 312.800 138.222,310.178 135.600,308.568 135.600 C 308.255 135.600,308.000 135.411,308.000 135.180 C 308.000 134.635,305.519 133.600,304.213 133.600 C 303.656 133.600,303.200 133.420,303.200 133.200 C 303.200 132.942,298.688 132.800,290.463 132.800 C 283.457 132.800,275.569 132.684,272.934 132.542 L 268.143 132.285 267.708 129.749 C 267.205 126.810,265.716 124.955,263.526 124.538 C 261.905 124.229,260.026 122.512,260.011 121.326 C 259.984 119.178,257.907 116.400,256.329 116.400 C 255.914 116.400,255.454 116.085,255.307 115.700 C 254.979 114.844,253.581 113.631,252.900 113.613 C 252.625 113.606,252.400 113.431,252.400 113.225 C 252.400 111.585,248.841 109.600,245.903 109.600 C 245.076 109.600,244.400 109.420,244.400 109.200 C 244.400 108.936,229.400 108.800,200.200 108.800 C 171.000 108.800,156.000 108.936,156.000 109.200 M238.700 111.100 C 238.792 111.375,239.383 111.600,240.014 111.600 C 241.801 111.600,245.357 112.426,245.800 112.944 C 246.020 113.201,246.681 113.719,247.270 114.095 C 247.858 114.471,248.455 115.143,248.597 115.589 C 248.738 116.035,249.103 116.400,249.407 116.400 C 249.711 116.400,250.104 116.625,250.280 116.900 C 250.695 117.548,252.225 118.400,252.975 118.400 C 253.297 118.400,253.704 118.625,253.880 118.900 C 254.056 119.175,254.548 119.592,254.973 119.827 C 255.399 120.061,255.939 120.597,256.173 121.018 C 256.408 121.438,256.803 121.966,257.052 122.191 C 257.301 122.416,257.618 123.090,257.757 123.688 C 257.995 124.713,259.832 126.800,260.496 126.800 C 260.780 126.800,261.398 127.284,263.100 128.840 C 264.091 129.746,265.200 131.155,265.200 131.509 C 265.200 132.117,267.252 133.997,268.112 134.176 C 268.600 134.278,275.740 134.429,283.977 134.513 C 294.939 134.624,298.997 134.790,299.111 135.132 C 299.196 135.389,299.693 135.600,300.215 135.600 C 301.989 135.600,306.000 138.295,306.000 139.488 C 306.000 139.983,308.188 141.921,309.340 142.446 C 309.915 142.707,310.490 143.254,310.619 143.661 C 310.748 144.067,311.019 144.400,311.222 144.400 C 311.663 144.400,312.800 147.004,312.800 148.016 C 312.800 148.410,313.009 148.803,313.266 148.889 C 313.858 149.086,313.769 274.524,313.177 274.733 C 312.970 274.807,312.800 275.409,312.800 276.072 C 312.800 277.269,311.720 279.663,311.050 279.950 C 310.858 280.032,310.392 280.392,310.015 280.750 C 309.115 281.604,307.957 282.370,307.149 282.646 C 306.791 282.768,306.299 283.303,306.057 283.834 C 305.815 284.365,305.433 284.800,305.209 284.800 C 304.984 284.800,304.800 285.038,304.800 285.328 C 304.800 285.904,303.374 287.264,301.998 288.001 C 301.519 288.258,299.793 288.568,298.164 288.691 C 296.534 288.815,295.200 289.069,295.200 289.258 C 295.200 289.446,252.672 289.600,200.400 289.600 C 137.467 289.600,105.600 289.466,105.600 289.200 C 105.600 288.980,104.655 288.796,103.500 288.790 C 100.855 288.778,98.344 288.208,97.811 287.497 C 97.585 287.196,97.068 286.826,96.662 286.673 C 96.256 286.521,95.830 286.037,95.715 285.598 C 95.601 285.159,95.344 284.800,95.145 284.800 C 94.946 284.800,94.585 284.365,94.343 283.834 C 94.101 283.303,93.609 282.768,93.251 282.646 C 92.443 282.370,91.285 281.604,90.385 280.750 C 90.008 280.393,89.543 280.033,89.350 279.950 C 88.680 279.663,87.600 277.269,87.600 276.072 C 87.600 275.409,87.430 274.807,87.223 274.733 C 86.631 274.524,86.542 149.086,87.134 148.889 C 87.391 148.803,87.600 148.410,87.600 148.016 C 87.600 147.004,88.737 144.400,89.178 144.400 C 89.381 144.400,89.652 144.067,89.781 143.661 C 89.910 143.254,90.485 142.707,91.060 142.446 C 92.212 141.921,94.400 139.983,94.400 139.488 C 94.400 138.218,98.430 135.600,100.385 135.600 C 101.017 135.600,101.602 135.393,101.687 135.139 C 101.798 134.807,106.215 134.611,117.467 134.439 L 133.093 134.200 134.247 132.949 C 134.881 132.261,135.726 131.079,136.124 130.321 C 136.523 129.564,137.409 128.613,138.095 128.208 C 140.847 126.582,142.370 125.048,142.657 123.613 C 142.785 122.974,143.140 122.355,143.445 122.238 C 143.750 122.121,144.000 121.754,144.000 121.422 C 144.000 121.090,144.495 120.504,145.100 120.119 C 145.705 119.734,146.344 119.190,146.520 118.910 C 146.696 118.629,147.103 118.400,147.425 118.400 C 148.175 118.400,149.705 117.548,150.120 116.900 C 150.296 116.625,150.689 116.400,150.993 116.400 C 151.297 116.400,151.662 116.035,151.803 115.589 C 151.945 115.143,152.542 114.471,153.130 114.095 C 153.719 113.719,154.380 113.201,154.600 112.944 C 155.047 112.421,158.604 111.600,160.420 111.600 C 161.069 111.600,161.600 111.426,161.600 111.214 C 161.600 110.326,238.404 110.213,238.700 111.100 M186.400 163.155 C 186.400 163.350,185.587 163.631,184.592 163.780 C 183.313 163.972,182.601 164.331,182.157 165.010 C 181.811 165.537,181.185 166.078,180.764 166.211 C 180.344 166.345,180.000 166.707,180.000 167.017 C 180.000 167.326,179.476 167.850,178.836 168.181 C 178.196 168.512,177.611 168.952,177.536 169.159 C 177.461 169.365,176.230 169.768,174.800 170.053 C 172.042 170.604,170.000 171.993,170.000 173.318 C 170.000 174.254,166.254 178.000,165.318 178.000 C 164.072 178.000,162.496 180.087,162.187 182.146 C 162.031 183.188,161.679 184.264,161.404 184.538 C 161.130 184.813,160.778 185.440,160.622 185.932 C 160.466 186.423,159.902 187.296,159.369 187.871 C 158.836 188.446,158.400 189.116,158.400 189.360 C 158.400 189.603,157.859 190.313,157.199 190.936 C 156.538 191.560,155.880 192.549,155.737 193.135 C 155.594 193.721,155.320 194.304,155.128 194.430 C 153.711 195.364,153.739 219.802,155.158 220.798 C 155.316 220.909,155.685 221.592,155.978 222.315 C 156.270 223.039,156.859 223.818,157.286 224.046 C 157.714 224.275,158.247 224.988,158.471 225.631 C 158.695 226.274,159.019 226.800,159.192 226.800 C 159.365 226.800,159.842 227.878,160.253 229.197 C 160.664 230.515,161.122 231.595,161.272 231.597 C 161.421 231.598,161.757 232.628,162.018 233.885 C 162.518 236.295,164.038 238.400,165.279 238.400 C 165.654 238.400,166.104 238.625,166.280 238.900 C 166.456 239.175,166.948 239.592,167.373 239.827 C 167.799 240.061,168.339 240.601,168.573 241.027 C 168.808 241.452,169.225 241.944,169.500 242.120 C 169.775 242.296,170.000 242.746,170.000 243.121 C 170.000 244.362,172.105 245.882,174.515 246.382 C 175.772 246.643,176.802 246.979,176.803 247.128 C 176.805 247.278,177.885 247.736,179.203 248.147 C 180.522 248.558,181.600 249.033,181.600 249.202 C 181.600 249.371,182.219 249.803,182.975 250.161 C 183.732 250.520,184.464 251.171,184.602 251.607 C 184.741 252.043,185.099 252.400,185.398 252.400 C 185.698 252.400,186.205 252.662,186.525 252.982 C 188.223 254.680,211.626 254.912,212.798 253.242 C 212.909 253.084,213.576 252.722,214.281 252.437 C 214.985 252.152,215.844 251.487,216.190 250.960 C 216.536 250.432,217.071 250.000,217.381 250.000 C 217.690 250.000,218.181 249.762,218.472 249.471 C 218.763 249.180,219.855 248.616,220.900 248.217 C 221.945 247.818,222.800 247.360,222.800 247.200 C 222.800 247.040,223.895 246.677,225.233 246.393 C 226.571 246.109,227.876 245.669,228.133 245.416 C 228.390 245.163,228.915 244.836,229.300 244.690 C 229.685 244.544,230.000 244.045,230.000 243.581 C 230.000 242.470,234.460 238.000,235.568 238.000 C 236.026 238.000,236.400 237.770,236.400 237.489 C 236.400 237.208,236.729 236.696,237.132 236.351 C 237.535 236.006,238.099 234.616,238.387 233.262 C 238.674 231.908,239.050 230.800,239.223 230.800 C 239.395 230.800,239.847 229.855,240.227 228.700 C 240.607 227.545,241.046 226.510,241.203 226.400 C 241.360 226.290,241.788 225.615,242.154 224.900 C 242.521 224.185,242.968 223.600,243.147 223.600 C 243.327 223.600,243.817 222.925,244.237 222.100 C 244.657 221.275,245.116 220.510,245.258 220.400 C 246.647 219.325,246.583 197.054,245.188 196.000 C 245.042 195.890,244.798 195.290,244.645 194.666 C 244.493 194.042,243.925 193.122,243.384 192.620 C 242.843 192.119,242.400 191.538,242.400 191.330 C 242.400 191.121,242.077 190.602,241.681 190.175 C 241.286 189.749,240.640 188.591,240.245 187.601 C 239.850 186.612,239.380 185.711,239.200 185.600 C 239.020 185.488,238.637 184.228,238.350 182.799 C 237.796 180.043,236.405 178.000,235.082 178.000 C 234.146 178.000,230.400 174.254,230.400 173.318 C 230.400 171.991,228.361 170.587,225.742 170.111 C 223.451 169.695,222.586 169.245,220.761 167.521 C 220.366 167.148,219.538 166.578,218.921 166.255 C 218.305 165.932,217.532 165.288,217.204 164.823 C 216.859 164.334,215.976 163.878,215.104 163.738 C 214.277 163.606,213.600 163.341,213.600 163.149 C 213.600 162.957,207.480 162.800,200.000 162.800 C 192.361 162.800,186.400 162.955,186.400 163.155 M208.600 174.409 C 210.800 174.623,212.660 174.979,212.733 175.199 C 212.807 175.420,213.094 175.600,213.372 175.600 C 214.360 175.600,216.362 176.850,216.606 177.619 C 216.742 178.048,217.002 178.400,217.184 178.400 C 217.365 178.400,217.626 178.850,217.764 179.400 C 217.902 179.950,218.179 180.400,218.379 180.400 C 218.579 180.400,218.981 180.632,219.271 180.915 C 219.562 181.198,220.650 181.751,221.688 182.144 C 224.198 183.092,225.831 184.687,226.381 186.728 C 226.628 187.648,227.004 188.400,227.215 188.400 C 227.427 188.400,227.600 188.665,227.600 188.990 C 227.600 189.314,228.150 189.864,228.821 190.211 C 231.029 191.353,232.800 193.951,232.800 196.049 C 232.800 196.462,232.980 196.800,233.200 196.800 C 233.456 196.800,233.600 200.267,233.600 206.400 C 233.600 212.533,233.456 216.000,233.200 216.000 C 232.980 216.000,232.800 216.697,232.800 217.550 C 232.800 220.226,231.753 222.373,229.264 224.801 C 227.932 226.100,226.643 227.811,226.244 228.807 C 225.361 231.014,223.034 233.353,220.852 234.226 C 219.117 234.920,217.098 236.645,216.648 237.818 C 216.509 238.180,216.037 238.570,215.598 238.685 C 215.159 238.799,214.800 239.035,214.800 239.209 C 214.800 239.741,211.159 240.800,209.329 240.800 C 208.378 240.800,207.600 240.980,207.600 241.200 C 207.600 241.453,204.800 241.600,200.000 241.600 C 195.200 241.600,192.400 241.453,192.400 241.200 C 192.400 240.980,191.635 240.799,190.700 240.798 C 188.458 240.795,186.011 240.094,185.735 239.375 C 185.614 239.059,185.309 238.794,185.057 238.787 C 184.400 238.768,183.009 237.526,182.679 236.662 C 182.523 236.256,182.049 235.833,181.626 235.723 C 181.202 235.612,180.759 235.269,180.640 234.961 C 180.522 234.652,180.059 234.400,179.613 234.400 C 179.166 234.400,178.440 234.040,178.000 233.600 C 177.560 233.160,177.065 232.794,176.900 232.787 C 176.169 232.754,174.908 231.260,174.276 229.677 C 173.429 227.555,173.308 227.401,170.261 224.537 C 168.668 223.041,167.600 220.587,167.600 218.425 C 167.600 217.534,167.386 216.795,167.100 216.700 C 166.416 216.471,166.460 197.113,167.145 196.885 C 167.395 196.802,167.600 196.383,167.600 195.954 C 167.600 193.937,169.752 190.777,171.500 190.229 C 171.995 190.073,172.400 189.683,172.400 189.360 C 172.400 189.038,172.670 188.671,173.000 188.545 C 173.330 188.418,173.600 187.965,173.600 187.537 C 173.600 185.355,175.949 182.740,178.616 181.952 C 179.597 181.662,180.400 181.306,180.400 181.159 C 180.400 181.013,180.758 180.800,181.195 180.685 C 181.633 180.571,182.152 180.052,182.350 179.531 C 182.819 178.297,184.843 176.000,185.461 176.000 C 185.726 176.000,186.225 175.718,186.569 175.374 C 187.756 174.187,200.552 173.627,208.600 174.409 M165.064 222.347 C 165.261 222.486,165.641 223.680,165.909 225.000 C 166.177 226.320,166.667 227.600,166.998 227.844 C 168.470 228.930,167.257 231.699,165.143 232.082 C 164.145 232.262,164.072 232.164,163.829 230.336 C 163.688 229.271,163.399 228.400,163.186 228.400 C 162.974 228.400,162.800 227.779,162.800 227.020 C 162.800 224.927,162.005 221.663,161.332 220.989 C 161.002 220.660,160.559 219.761,160.347 218.993 C 159.986 217.687,158.220 215.600,157.476 215.600 C 156.245 215.600,156.000 214.375,156.000 208.229 C 156.000 202.683,156.073 202.000,156.666 202.000 C 157.033 202.000,157.618 201.743,157.966 201.428 C 159.535 200.011,160.660 198.833,161.400 197.832 C 161.840 197.236,162.551 196.364,162.981 195.894 C 163.591 195.225,163.808 194.248,163.975 191.419 C 164.092 189.429,164.304 195.516,164.447 204.947 C 164.589 214.378,164.867 222.208,165.064 222.347 M237.004 195.916 C 237.224 196.072,237.652 196.920,237.955 197.800 C 238.527 199.464,238.796 199.851,240.672 201.728 C 242.637 203.693,243.051 204.000,243.734 204.000 C 244.838 204.000,244.729 214.242,243.620 214.594 C 242.297 215.013,240.549 216.929,239.961 218.604 C 239.652 219.482,239.192 220.380,238.938 220.600 C 238.371 221.091,237.600 224.676,237.600 226.820 C 237.600 227.689,237.436 228.400,237.235 228.400 C 237.034 228.400,236.753 229.097,236.609 229.948 C 236.355 231.452,236.287 231.506,234.274 231.848 L 232.200 232.200 231.844 234.300 C 231.648 235.455,231.319 236.400,231.113 236.400 C 230.595 236.400,228.400 238.641,228.400 239.169 C 228.400 239.865,226.032 239.663,225.238 238.900 C 224.256 237.956,223.901 236.000,224.712 236.000 C 225.541 236.000,227.522 233.851,227.832 232.616 C 228.033 231.814,228.336 231.600,229.272 231.600 C 230.737 231.600,231.600 230.787,231.600 229.408 C 231.600 228.721,232.082 227.917,232.995 227.080 C 234.104 226.062,234.444 225.390,234.656 223.800 C 234.803 222.700,235.065 221.706,235.238 221.591 C 235.412 221.476,235.698 213.826,235.875 204.591 C 236.058 195.002,236.284 189.480,236.400 191.716 C 236.513 193.870,236.785 195.760,237.004 195.916 M172.400 233.231 C 172.400 233.791,174.609 236.000,175.169 236.000 C 175.865 236.000,175.663 238.368,174.900 239.162 C 173.876 240.228,172.000 240.495,172.000 239.575 C 172.000 238.651,169.749 236.400,168.825 236.400 C 167.944 236.400,168.154 234.575,169.156 233.524 C 169.867 232.777,172.400 232.548,172.400 233.231 M222.900 241.238 C 224.263 242.657,223.826 244.292,222.000 244.600 C 221.120 244.749,220.400 245.008,220.400 245.177 C 220.400 245.346,219.179 245.586,217.686 245.712 C 214.865 245.948,212.830 246.618,212.280 247.492 C 212.104 247.771,211.726 248.000,211.439 248.000 C 210.723 248.000,208.442 250.238,208.015 251.360 C 207.296 253.252,192.374 253.409,191.778 251.530 C 191.464 250.542,189.837 248.929,188.833 248.611 C 188.397 248.472,187.942 248.048,187.821 247.668 C 187.529 246.746,185.552 246.025,182.500 245.728 C 181.125 245.594,180.000 245.337,180.000 245.156 C 180.000 244.975,179.129 244.712,178.064 244.571 C 176.236 244.328,176.138 244.255,176.318 243.257 C 176.684 241.234,179.917 239.764,180.523 241.344 C 180.745 241.922,183.671 242.800,185.377 242.800 C 185.940 242.800,186.400 242.980,186.400 243.200 C 186.400 243.459,191.200 243.600,200.000 243.600 C 207.480 243.600,213.600 243.445,213.600 243.256 C 213.600 243.066,214.463 242.809,215.519 242.684 C 217.901 242.402,219.518 241.689,219.801 240.796 C 220.076 239.932,221.894 240.191,222.900 241.238 " stroke="none" fill="#d8dee4" fill-rule="evenodd"></path><path id="path3" d="M165.652 112.454 C 162.931 112.593,160.591 112.877,160.452 113.083 C 160.313 113.290,159.311 113.704,158.225 114.002 C 157.017 114.335,155.673 115.100,154.761 115.973 C 153.031 117.630,152.077 118.330,151.100 118.658 C 150.715 118.788,150.400 119.038,150.400 119.216 C 150.400 119.393,149.790 119.739,149.045 119.985 C 147.344 120.547,145.154 122.647,144.222 124.609 C 143.465 126.205,140.925 128.933,139.100 130.109 C 138.495 130.499,138.000 131.015,138.000 131.256 C 138.000 131.643,136.196 133.486,134.152 135.187 C 133.203 135.978,123.625 136.497,116.092 136.167 C 110.449 135.919,100.800 136.581,100.800 137.216 C 100.800 137.379,100.306 137.637,99.703 137.789 C 99.100 137.940,97.207 139.478,95.497 141.207 C 93.786 142.936,92.071 144.450,91.686 144.573 C 91.300 144.695,90.630 145.471,90.196 146.298 C 89.762 147.124,89.226 147.928,89.004 148.085 C 88.405 148.509,88.447 275.131,89.046 275.515 C 89.291 275.672,89.629 276.239,89.797 276.775 C 90.117 277.798,92.633 280.400,93.303 280.400 C 93.674 280.400,95.631 282.350,97.427 284.510 C 98.455 285.746,100.444 286.800,101.747 286.800 C 102.289 286.800,102.808 287.025,102.900 287.300 C 103.145 288.035,297.255 288.035,297.500 287.300 C 297.592 287.025,298.119 286.800,298.673 286.800 C 300.077 286.800,302.051 285.783,303.000 284.571 C 304.525 282.622,306.708 280.400,307.097 280.400 C 307.767 280.400,310.283 277.798,310.603 276.775 C 310.771 276.239,311.109 275.672,311.354 275.515 C 311.953 275.131,311.995 148.509,311.396 148.085 C 311.174 147.928,310.638 147.124,310.204 146.298 C 309.770 145.471,309.117 144.701,308.753 144.585 C 308.097 144.377,305.869 142.292,303.248 139.433 C 302.505 138.623,301.380 137.856,300.748 137.730 C 300.117 137.603,299.600 137.372,299.600 137.215 C 299.600 136.565,290.288 135.914,284.516 136.161 C 275.784 136.535,267.267 135.993,266.047 134.986 C 264.537 133.740,262.638 131.778,262.173 130.983 C 261.939 130.582,261.418 130.061,261.017 129.827 C 259.467 128.920,256.957 126.101,256.002 124.194 C 255.171 122.535,252.918 120.501,251.331 119.977 C 250.599 119.736,250.000 119.393,250.000 119.216 C 250.000 119.038,249.685 118.788,249.300 118.658 C 248.320 118.329,247.368 117.629,245.615 115.950 C 244.624 115.000,243.395 114.319,242.051 113.974 C 240.923 113.685,240.000 113.317,240.000 113.156 C 240.000 112.333,179.210 111.759,165.652 112.454 M236.592 114.578 C 237.586 114.727,238.400 114.995,238.400 115.175 C 238.400 115.354,238.927 115.605,239.571 115.734 C 240.215 115.863,241.430 116.617,242.271 117.410 C 244.773 119.768,244.949 119.905,246.200 120.459 C 246.860 120.751,247.621 121.201,247.892 121.459 C 248.163 121.716,249.110 122.050,249.997 122.200 C 252.004 122.539,253.810 124.263,254.170 126.183 C 254.317 126.962,254.588 127.600,254.773 127.600 C 254.958 127.600,255.408 128.230,255.773 129.000 C 256.139 129.770,256.690 130.400,256.999 130.400 C 257.308 130.400,257.704 130.629,257.880 130.908 C 258.056 131.188,258.695 131.634,259.300 131.900 C 259.905 132.165,260.400 132.657,260.400 132.991 C 260.400 133.326,260.541 133.600,260.714 133.600 C 260.886 133.600,261.333 134.117,261.706 134.748 C 262.079 135.380,262.973 136.134,263.692 136.425 C 264.411 136.716,265.126 137.140,265.279 137.367 C 265.685 137.966,277.533 138.437,284.889 138.147 C 291.147 137.900,297.600 138.459,297.600 139.249 C 297.600 139.442,298.095 139.606,298.700 139.613 C 300.103 139.629,300.803 140.210,301.800 142.185 C 302.783 144.132,304.413 145.743,306.115 146.448 C 308.022 147.237,308.800 148.051,308.800 149.256 C 308.800 149.848,309.025 150.408,309.300 150.500 C 310.035 150.745,310.035 272.455,309.300 272.700 C 309.025 272.792,308.800 273.404,308.800 274.060 C 308.800 275.674,308.137 276.800,307.186 276.800 C 306.754 276.800,306.400 276.968,306.400 277.173 C 306.400 277.378,306.043 277.659,305.607 277.798 C 304.605 278.116,301.600 280.895,301.600 281.503 C 301.600 281.755,301.375 282.104,301.100 282.280 C 300.825 282.456,300.401 282.960,300.158 283.400 C 299.889 283.889,299.033 284.344,297.958 284.569 C 296.991 284.772,296.072 285.132,295.915 285.369 C 295.510 285.980,104.890 285.980,104.485 285.369 C 104.328 285.132,103.392 284.772,102.405 284.568 C 101.032 284.285,100.486 283.940,100.083 283.099 C 99.793 282.495,99.386 282.000,99.178 282.000 C 98.970 282.000,98.800 281.760,98.800 281.466 C 98.800 280.810,95.891 278.146,94.796 277.799 C 94.358 277.660,94.000 277.378,94.000 277.173 C 94.000 276.968,93.646 276.800,93.214 276.800 C 92.263 276.800,91.600 275.674,91.600 274.060 C 91.600 273.404,91.375 272.792,91.100 272.700 C 90.365 272.455,90.365 150.745,91.100 150.500 C 91.375 150.408,91.600 149.848,91.600 149.256 C 91.600 148.054,92.378 147.237,94.267 146.455 C 95.686 145.867,98.000 143.936,98.000 143.340 C 98.000 143.126,98.315 142.592,98.700 142.154 C 99.085 141.715,99.598 141.006,99.840 140.578 C 100.097 140.125,100.806 139.748,101.540 139.675 C 102.233 139.606,102.800 139.399,102.800 139.216 C 102.800 138.482,109.751 137.905,115.552 138.156 C 124.070 138.526,134.911 137.947,135.783 137.075 C 136.154 136.704,136.665 136.400,136.918 136.400 C 137.532 136.400,140.000 133.603,140.000 132.907 C 140.000 132.605,140.526 132.175,141.168 131.951 C 141.810 131.727,142.435 131.287,142.555 130.972 C 142.676 130.657,143.055 130.400,143.397 130.400 C 143.740 130.400,144.191 129.950,144.400 129.400 C 144.609 128.850,144.958 128.400,145.175 128.400 C 145.392 128.400,145.836 127.501,146.163 126.401 C 146.885 123.969,148.325 122.551,150.433 122.194 C 151.304 122.047,152.237 121.716,152.508 121.459 C 152.779 121.201,153.540 120.751,154.200 120.459 C 155.448 119.906,155.626 119.768,158.108 117.431 C 158.937 116.650,160.107 115.891,160.708 115.744 C 161.308 115.597,161.921 115.291,162.070 115.064 C 162.617 114.227,231.262 113.779,236.592 114.578 M182.409 158.680 C 181.204 158.773,180.124 158.972,180.009 159.124 C 179.894 159.276,179.143 159.733,178.341 160.141 C 177.509 160.563,176.563 161.493,176.141 162.303 C 174.929 164.627,172.805 166.400,171.234 166.400 C 170.807 166.400,170.219 166.625,169.929 166.900 C 169.638 167.175,168.754 167.698,167.964 168.063 C 167.028 168.495,166.337 169.192,165.982 170.063 C 165.294 171.745,163.823 173.205,161.934 174.077 C 160.898 174.556,160.317 175.171,159.954 176.177 C 159.671 176.960,159.312 177.600,159.157 177.600 C 159.002 177.600,158.567 178.579,158.190 179.775 C 157.814 180.972,157.257 182.046,156.953 182.163 C 156.649 182.279,156.400 182.647,156.400 182.980 C 156.400 183.313,155.984 183.689,155.476 183.817 C 153.636 184.279,151.600 187.207,151.600 189.393 C 151.600 189.910,151.375 190.408,151.100 190.500 C 150.711 190.630,150.600 194.369,150.600 207.400 C 150.600 220.431,150.711 224.170,151.100 224.300 C 151.375 224.392,151.600 224.715,151.600 225.019 C 151.600 226.737,153.000 229.379,154.821 231.097 C 155.909 232.125,156.800 233.198,156.800 233.483 C 156.800 233.767,156.975 234.000,157.189 234.000 C 157.403 234.000,157.877 235.035,158.242 236.300 C 158.607 237.565,159.031 238.690,159.183 238.800 C 159.336 238.910,159.789 239.565,160.190 240.256 C 160.664 241.071,161.467 241.692,162.481 242.027 C 164.499 242.693,165.370 243.474,166.136 245.309 C 166.479 246.129,166.948 246.800,167.180 246.800 C 167.411 246.800,167.600 247.086,167.600 247.435 C 167.600 247.784,168.140 248.273,168.800 248.522 C 169.460 248.772,170.000 249.103,170.000 249.259 C 170.000 249.415,170.990 249.831,172.200 250.183 C 173.410 250.535,174.400 250.978,174.400 251.168 C 174.400 251.358,174.858 251.628,175.417 251.769 C 175.977 251.909,176.553 252.333,176.698 252.712 C 176.974 253.434,178.386 254.764,178.900 254.787 C 179.065 254.794,179.536 255.136,179.947 255.547 C 180.357 255.957,181.572 256.425,182.647 256.586 C 183.721 256.747,184.728 257.086,184.885 257.339 C 185.314 258.032,214.469 257.993,214.700 257.300 C 214.792 257.025,215.369 256.800,215.983 256.800 C 218.050 256.800,220.679 255.635,222.119 254.081 C 223.632 252.449,224.650 251.600,225.096 251.600 C 225.373 251.600,225.600 251.429,225.600 251.220 C 225.600 251.012,226.635 250.519,227.900 250.126 C 229.165 249.733,230.260 249.274,230.333 249.106 C 230.407 248.938,230.692 248.800,230.968 248.800 C 231.668 248.800,234.399 245.678,234.407 244.867 C 234.415 244.044,236.093 242.400,236.924 242.400 C 237.689 242.400,240.800 239.645,240.800 238.968 C 240.800 238.692,240.938 238.407,241.106 238.333 C 241.274 238.260,241.733 237.165,242.126 235.900 C 242.519 234.635,243.012 233.600,243.220 233.600 C 243.429 233.600,243.600 233.374,243.600 233.098 C 243.600 232.823,244.559 231.591,245.730 230.362 C 247.259 228.758,248.013 227.574,248.401 226.164 C 248.698 225.084,249.134 224.071,249.370 223.914 C 249.985 223.506,249.970 192.480,249.356 192.085 C 249.111 191.928,248.778 190.900,248.616 189.800 C 248.222 187.131,246.527 184.400,245.263 184.400 C 245.019 184.400,244.504 183.905,244.119 183.300 C 243.734 182.695,243.206 182.065,242.945 181.900 C 242.684 181.735,242.348 180.876,242.199 179.992 C 242.049 179.108,241.711 178.163,241.447 177.892 C 241.182 177.621,240.728 176.818,240.437 176.106 C 239.980 174.987,238.164 173.600,237.157 173.600 C 236.510 173.600,234.846 171.584,234.341 170.189 C 233.981 169.191,233.392 168.552,232.411 168.092 C 231.635 167.728,230.762 167.199,230.471 166.915 C 230.181 166.632,229.593 166.400,229.166 166.400 C 227.590 166.400,225.473 164.639,224.208 162.276 C 223.622 161.180,222.946 160.620,221.608 160.118 C 220.614 159.746,219.672 159.252,219.515 159.021 C 219.232 158.604,187.243 158.310,182.409 158.680 M213.600 161.145 C 213.600 161.335,214.984 161.714,216.676 161.986 C 219.701 162.474,219.793 162.525,222.278 165.034 C 224.135 166.910,225.333 167.758,226.802 168.239 C 227.901 168.598,228.800 169.051,228.800 169.246 C 228.800 169.441,229.036 169.600,229.324 169.600 C 229.885 169.600,232.400 171.890,232.400 172.400 C 232.400 172.799,235.601 176.000,236.000 176.000 C 236.488 176.000,238.800 178.504,238.800 179.033 C 238.800 179.298,239.031 179.603,239.313 179.711 C 239.594 179.819,240.061 180.829,240.350 181.954 C 240.638 183.079,241.025 184.000,241.210 184.000 C 241.395 184.000,241.662 184.365,241.803 184.811 C 241.945 185.257,242.676 186.292,243.429 187.111 C 244.181 187.930,244.797 188.838,244.798 189.129 C 244.799 189.419,245.042 189.899,245.338 190.195 C 245.634 190.492,246.115 191.874,246.406 193.267 C 246.697 194.660,247.130 195.928,247.367 196.085 C 248.032 196.524,247.966 220.078,247.300 220.300 C 247.025 220.392,246.800 220.701,246.800 220.987 C 246.800 221.928,245.486 225.600,245.150 225.600 C 244.969 225.600,244.522 226.185,244.156 226.900 C 243.791 227.615,243.278 228.326,243.016 228.480 C 242.755 228.635,242.300 229.490,242.006 230.380 C 241.712 231.271,241.326 232.000,241.147 232.000 C 240.969 232.000,240.535 232.990,240.183 234.200 C 239.831 235.410,239.376 236.400,239.172 236.400 C 238.967 236.400,238.800 236.642,238.800 236.939 C 238.800 237.235,238.073 238.090,237.185 238.839 C 235.125 240.576,232.576 243.125,230.839 245.185 C 230.090 246.073,229.235 246.800,228.939 246.800 C 228.642 246.800,228.400 246.967,228.400 247.172 C 228.400 247.376,227.410 247.831,226.200 248.183 C 224.990 248.535,224.000 248.969,224.000 249.147 C 224.000 249.326,223.271 249.712,222.380 250.006 C 221.490 250.300,220.635 250.755,220.480 251.016 C 220.326 251.278,219.615 251.791,218.900 252.156 C 218.185 252.522,217.600 252.969,217.600 253.150 C 217.600 253.486,213.928 254.800,212.987 254.800 C 212.701 254.800,212.392 255.025,212.300 255.300 C 212.172 255.685,209.351 255.800,200.000 255.800 C 190.649 255.800,187.829 255.685,187.700 255.300 C 187.608 255.025,187.285 254.800,186.981 254.800 C 185.904 254.800,182.595 253.501,182.280 252.955 C 182.104 252.650,181.709 252.400,181.403 252.400 C 181.096 252.400,180.607 252.085,180.316 251.700 C 179.704 250.891,177.400 249.600,176.568 249.600 C 176.255 249.600,176.000 249.445,176.000 249.255 C 176.000 249.065,175.010 248.598,173.800 248.218 C 172.590 247.837,171.600 247.362,171.600 247.163 C 171.600 246.963,171.375 246.794,171.100 246.787 C 170.347 246.767,169.074 245.549,168.400 244.203 C 167.632 242.671,165.729 240.768,164.197 240.000 C 162.851 239.326,161.633 238.053,161.613 237.300 C 161.606 237.025,161.437 236.800,161.237 236.800 C 161.038 236.800,160.563 235.810,160.182 234.600 C 159.802 233.390,159.360 232.400,159.200 232.400 C 159.040 232.400,158.584 231.545,158.188 230.500 C 157.791 229.455,157.137 228.365,156.734 228.077 C 156.330 227.790,156.000 227.304,156.000 226.997 C 156.000 226.691,155.750 226.296,155.445 226.120 C 154.899 225.805,153.600 222.496,153.600 221.419 C 153.600 221.115,153.375 220.792,153.100 220.700 C 152.462 220.487,152.365 194.939,153.000 194.485 C 153.220 194.328,153.708 192.991,154.085 191.514 C 154.615 189.440,155.117 188.482,156.290 187.314 C 157.125 186.481,158.062 185.305,158.372 184.700 C 158.682 184.095,159.065 183.600,159.223 183.600 C 159.382 183.600,159.757 182.767,160.056 181.750 C 160.355 180.732,160.825 179.813,161.100 179.707 C 161.375 179.601,161.600 179.298,161.600 179.033 C 161.600 178.504,163.912 176.000,164.400 176.000 C 164.799 176.000,168.000 172.799,168.000 172.400 C 168.000 171.890,170.515 169.600,171.076 169.600 C 171.364 169.600,171.600 169.427,171.600 169.215 C 171.600 169.004,172.312 168.639,173.182 168.405 C 174.052 168.171,174.997 167.747,175.282 167.463 C 175.567 167.179,176.295 166.623,176.900 166.227 C 177.505 165.832,178.000 165.303,178.000 165.053 C 178.000 163.770,180.359 162.396,183.364 161.929 C 185.034 161.669,186.400 161.309,186.400 161.128 C 186.400 160.948,192.520 160.800,200.000 160.800 C 207.480 160.800,213.600 160.955,213.600 161.145 M192.400 176.497 C 190.970 176.714,189.710 177.024,189.600 177.184 C 189.490 177.345,188.860 177.608,188.200 177.767 C 187.540 177.927,186.190 178.917,185.200 179.967 C 184.210 181.017,182.725 182.121,181.900 182.419 C 181.075 182.717,180.400 183.092,180.400 183.253 C 180.400 183.414,179.995 183.672,179.500 183.826 C 178.427 184.159,176.010 186.403,176.004 187.071 C 176.002 187.331,175.775 187.784,175.500 188.079 C 175.225 188.373,174.678 189.191,174.285 189.894 C 173.892 190.598,172.772 192.007,171.796 193.026 C 170.640 194.233,169.928 195.386,169.753 196.339 C 169.605 197.142,169.286 197.928,169.042 198.085 C 168.372 198.518,168.428 217.276,169.100 217.500 C 169.375 217.592,169.600 218.093,169.600 218.615 C 169.600 220.158,170.465 221.682,172.481 223.687 C 173.525 224.726,174.493 226.031,174.633 226.587 C 174.772 227.144,175.035 227.600,175.216 227.600 C 175.398 227.600,175.669 228.005,175.819 228.500 C 176.294 230.067,179.616 232.800,181.046 232.800 C 181.351 232.800,181.600 232.950,181.600 233.132 C 181.600 233.315,182.095 233.716,182.700 234.024 C 183.305 234.331,184.546 235.350,185.458 236.289 C 186.741 237.609,187.600 238.104,189.258 238.477 C 190.436 238.742,191.528 239.149,191.685 239.380 C 192.071 239.948,207.920 239.956,208.314 239.389 C 208.471 239.163,209.646 238.765,210.925 238.505 C 212.830 238.117,213.551 237.721,214.925 236.307 C 215.846 235.359,217.095 234.331,217.700 234.024 C 218.305 233.716,218.800 233.335,218.800 233.176 C 218.800 233.017,219.235 232.778,219.767 232.644 C 221.174 232.291,223.801 229.607,224.423 227.886 C 224.719 227.069,225.092 226.400,225.253 226.400 C 225.414 226.400,225.651 226.070,225.779 225.666 C 225.907 225.262,226.979 223.909,228.162 222.658 C 229.923 220.796,230.363 220.043,230.595 218.493 C 230.751 217.452,231.086 216.471,231.339 216.314 C 232.025 215.890,231.987 199.129,231.300 198.900 C 231.025 198.808,230.800 198.307,230.800 197.785 C 230.800 196.268,229.950 194.717,228.176 192.997 C 227.266 192.116,226.279 190.721,225.981 189.897 C 225.683 189.074,225.308 188.400,225.147 188.400 C 224.986 188.400,224.742 188.049,224.606 187.619 C 224.285 186.608,221.678 184.000,220.989 184.000 C 220.696 184.000,220.219 183.767,219.929 183.483 C 219.638 183.199,218.803 182.722,218.074 182.424 C 217.345 182.126,215.746 180.918,214.521 179.741 C 213.109 178.384,211.946 177.600,211.346 177.600 C 210.826 177.600,210.400 177.451,210.400 177.269 C 210.400 176.197,197.903 175.661,192.400 176.497 M206.327 179.082 C 206.478 179.327,207.261 179.650,208.066 179.801 C 208.872 179.952,209.861 180.375,210.265 180.741 C 210.669 181.107,211.540 181.751,212.200 182.171 C 212.860 182.592,213.635 183.265,213.923 183.668 C 214.210 184.071,214.692 184.400,214.994 184.400 C 215.296 184.400,215.791 184.648,216.094 184.951 C 216.397 185.254,217.265 185.630,218.023 185.785 C 221.298 186.456,222.060 187.183,222.620 190.164 C 222.768 190.954,223.037 191.600,223.218 191.600 C 223.398 191.600,223.672 192.005,223.826 192.500 C 223.979 192.995,225.061 194.330,226.228 195.468 C 227.786 196.985,228.427 197.943,228.634 199.068 C 228.789 199.910,229.114 200.728,229.358 200.885 C 229.976 201.284,229.969 214.321,229.350 214.714 C 229.103 214.871,228.767 215.630,228.604 216.400 C 228.409 217.323,227.579 218.529,226.169 219.937 C 224.993 221.112,223.910 222.454,223.763 222.918 C 223.615 223.383,223.273 223.984,223.003 224.254 C 222.732 224.525,222.387 225.523,222.235 226.473 C 221.874 228.731,220.290 230.206,217.830 230.575 C 216.823 230.726,216.000 230.998,216.000 231.181 C 216.000 231.364,215.577 231.620,215.059 231.749 C 214.541 231.879,213.146 232.958,211.959 234.147 C 210.532 235.575,209.325 236.409,208.400 236.604 C 207.630 236.767,206.872 237.103,206.715 237.350 C 206.318 237.976,194.082 237.974,193.686 237.349 C 193.529 237.101,192.644 236.772,191.720 236.617 C 190.418 236.400,189.565 235.861,187.920 234.217 C 186.754 233.051,185.395 231.974,184.900 231.822 C 184.405 231.670,184.000 231.398,184.000 231.218 C 184.000 231.037,183.325 230.772,182.500 230.628 C 179.123 230.041,178.442 229.386,177.793 226.100 C 177.652 225.385,177.390 224.800,177.212 224.800 C 177.033 224.800,176.776 224.358,176.640 223.817 C 176.358 222.694,175.102 221.254,173.503 220.221 C 172.823 219.781,172.222 218.882,171.922 217.856 C 171.656 216.945,171.250 216.072,171.019 215.915 C 170.420 215.507,170.448 200.867,171.050 200.485 C 171.297 200.328,171.631 199.596,171.791 198.858 C 171.970 198.030,172.809 196.804,173.979 195.658 C 175.023 194.636,176.120 193.125,176.418 192.300 C 176.717 191.475,177.105 190.800,177.280 190.800 C 177.456 190.800,177.600 190.390,177.600 189.889 C 177.600 188.092,179.401 186.208,181.500 185.810 C 182.215 185.675,182.800 185.412,182.800 185.226 C 182.800 185.041,183.434 184.770,184.209 184.625 C 184.984 184.479,185.837 184.009,186.105 183.580 C 186.373 183.151,186.806 182.800,187.067 182.800 C 187.328 182.800,187.912 182.330,188.364 181.755 C 189.206 180.684,191.500 179.649,193.100 179.618 C 193.595 179.608,194.000 179.432,194.000 179.227 C 194.000 178.359,205.795 178.221,206.327 179.082 " stroke="none" fill="#bcccd4" fill-rule="evenodd"></path><path id="path4" d="M165.900 110.679 C 163.502 110.762,161.600 110.998,161.600 111.214 C 161.600 111.426,161.069 111.600,160.420 111.600 C 158.604 111.600,155.047 112.421,154.600 112.944 C 154.380 113.201,153.719 113.719,153.130 114.095 C 152.542 114.471,151.945 115.143,151.803 115.589 C 151.662 116.035,151.297 116.400,150.993 116.400 C 150.689 116.400,150.296 116.625,150.120 116.900 C 149.705 117.548,148.175 118.400,147.425 118.400 C 147.103 118.400,146.696 118.629,146.520 118.910 C 146.344 119.190,145.705 119.734,145.100 120.119 C 144.495 120.504,144.000 121.090,144.000 121.422 C 144.000 121.754,143.750 122.121,143.445 122.238 C 143.140 122.355,142.785 122.974,142.657 123.613 C 142.370 125.048,140.847 126.582,138.095 128.208 C 137.409 128.613,136.523 129.564,136.124 130.321 C 135.726 131.079,134.881 132.261,134.247 132.949 L 133.093 134.200 117.467 134.439 C 106.215 134.611,101.798 134.807,101.687 135.139 C 101.602 135.393,101.017 135.600,100.385 135.600 C 98.430 135.600,94.400 138.218,94.400 139.488 C 94.400 139.983,92.212 141.921,91.060 142.446 C 90.485 142.707,89.910 143.254,89.781 143.661 C 89.652 144.067,89.381 144.400,89.178 144.400 C 88.737 144.400,87.600 147.004,87.600 148.016 C 87.600 148.410,87.391 148.803,87.134 148.889 C 86.542 149.086,86.631 274.524,87.223 274.733 C 87.430 274.807,87.600 275.409,87.600 276.072 C 87.600 277.269,88.680 279.663,89.350 279.950 C 89.543 280.033,90.008 280.393,90.385 280.750 C 91.285 281.604,92.443 282.370,93.251 282.646 C 93.609 282.768,94.101 283.303,94.343 283.834 C 94.585 284.365,94.946 284.800,95.145 284.800 C 95.344 284.800,95.601 285.159,95.715 285.598 C 95.830 286.037,96.256 286.521,96.662 286.673 C 97.068 286.826,97.585 287.196,97.811 287.497 C 98.344 288.208,100.855 288.778,103.500 288.790 C 104.655 288.796,105.600 288.980,105.600 289.200 C 105.600 289.466,137.467 289.600,200.400 289.600 C 252.672 289.600,295.200 289.446,295.200 289.258 C 295.200 289.069,296.534 288.815,298.164 288.691 C 299.793 288.568,301.519 288.258,301.998 288.001 C 303.374 287.264,304.800 285.904,304.800 285.328 C 304.800 285.038,304.984 284.800,305.209 284.800 C 305.433 284.800,305.815 284.365,306.057 283.834 C 306.299 283.303,306.791 282.768,307.149 282.646 C 307.957 282.370,309.115 281.604,310.015 280.750 C 310.392 280.392,310.858 280.032,311.050 279.950 C 311.720 279.663,312.800 277.269,312.800 276.072 C 312.800 275.409,312.970 274.807,313.177 274.733 C 313.769 274.524,313.858 149.086,313.266 148.889 C 313.009 148.803,312.800 148.410,312.800 148.016 C 312.800 147.004,311.663 144.400,311.222 144.400 C 311.019 144.400,310.748 144.067,310.619 143.661 C 310.490 143.254,309.915 142.707,309.340 142.446 C 308.188 141.921,306.000 139.983,306.000 139.488 C 306.000 138.295,301.989 135.600,300.215 135.600 C 299.693 135.600,299.196 135.389,299.111 135.132 C 298.997 134.790,294.939 134.624,283.977 134.513 C 275.740 134.429,268.600 134.278,268.112 134.176 C 267.252 133.997,265.200 132.117,265.200 131.509 C 265.200 131.155,264.091 129.746,263.100 128.840 C 261.398 127.284,260.780 126.800,260.496 126.800 C 259.832 126.800,257.995 124.713,257.757 123.688 C 257.618 123.090,257.301 122.416,257.052 122.191 C 256.803 121.966,256.408 121.438,256.173 121.018 C 255.939 120.597,255.399 120.061,254.973 119.827 C 254.548 119.592,254.056 119.175,253.880 118.900 C 253.704 118.625,253.297 118.400,252.975 118.400 C 252.225 118.400,250.695 117.548,250.280 116.900 C 250.104 116.625,249.711 116.400,249.407 116.400 C 249.103 116.400,248.738 116.035,248.597 115.589 C 248.455 115.143,247.858 114.471,247.270 114.095 C 246.681 113.719,246.020 113.201,245.800 112.944 C 245.357 112.426,241.801 111.600,240.014 111.600 C 239.383 111.600,238.792 111.375,238.700 111.100 C 238.539 110.617,177.911 110.266,165.900 110.679 M237.400 112.585 C 238.830 112.738,240.000 112.995,240.000 113.156 C 240.000 113.317,240.923 113.685,242.051 113.974 C 243.395 114.319,244.624 115.000,245.615 115.950 C 247.368 117.629,248.320 118.329,249.300 118.658 C 249.685 118.788,250.000 119.038,250.000 119.216 C 250.000 119.393,250.599 119.736,251.331 119.977 C 252.918 120.501,255.171 122.535,256.002 124.194 C 256.957 126.101,259.467 128.920,261.017 129.827 C 261.418 130.061,261.939 130.582,262.173 130.983 C 262.638 131.778,264.537 133.740,266.047 134.986 C 267.267 135.993,275.784 136.535,284.516 136.161 C 290.288 135.914,299.600 136.565,299.600 137.215 C 299.600 137.372,300.117 137.603,300.748 137.730 C 301.380 137.856,302.505 138.623,303.248 139.433 C 305.869 142.292,308.097 144.377,308.753 144.585 C 309.117 144.701,309.770 145.471,310.204 146.298 C 310.638 147.124,311.174 147.928,311.396 148.085 C 311.995 148.509,311.953 275.131,311.354 275.515 C 311.109 275.672,310.771 276.239,310.603 276.775 C 310.283 277.798,307.767 280.400,307.097 280.400 C 306.708 280.400,304.525 282.622,303.000 284.571 C 302.051 285.783,300.077 286.800,298.673 286.800 C 298.119 286.800,297.592 287.025,297.500 287.300 C 297.255 288.035,103.145 288.035,102.900 287.300 C 102.808 287.025,102.289 286.800,101.747 286.800 C 100.444 286.800,98.455 285.746,97.427 284.510 C 95.631 282.350,93.674 280.400,93.303 280.400 C 92.633 280.400,90.117 277.798,89.797 276.775 C 89.629 276.239,89.291 275.672,89.046 275.515 C 88.447 275.131,88.405 148.509,89.004 148.085 C 89.226 147.928,89.762 147.124,90.196 146.298 C 90.630 145.471,91.300 144.695,91.686 144.573 C 92.071 144.450,93.786 142.936,95.497 141.207 C 97.207 139.478,99.100 137.940,99.703 137.789 C 100.306 137.637,100.800 137.379,100.800 137.216 C 100.800 136.581,110.449 135.919,116.092 136.167 C 123.625 136.497,133.203 135.978,134.152 135.187 C 136.196 133.486,138.000 131.643,138.000 131.256 C 138.000 131.015,138.495 130.499,139.100 130.109 C 140.925 128.933,143.465 126.205,144.222 124.609 C 145.154 122.647,147.344 120.547,149.045 119.985 C 149.790 119.739,150.400 119.393,150.400 119.216 C 150.400 119.038,150.715 118.788,151.100 118.658 C 152.077 118.330,153.031 117.630,154.761 115.973 C 155.673 115.100,157.017 114.335,158.225 114.002 C 159.311 113.704,160.313 113.290,160.452 113.083 C 161.021 112.235,229.966 111.789,237.400 112.585 M186.400 161.128 C 186.400 161.309,185.034 161.669,183.364 161.929 C 180.359 162.396,178.000 163.770,178.000 165.053 C 178.000 165.303,177.505 165.832,176.900 166.227 C 176.295 166.623,175.567 167.179,175.282 167.463 C 174.997 167.747,174.052 168.171,173.182 168.405 C 172.312 168.639,171.600 169.004,171.600 169.215 C 171.600 169.427,171.364 169.600,171.076 169.600 C 170.515 169.600,168.000 171.890,168.000 172.400 C 168.000 172.799,164.799 176.000,164.400 176.000 C 163.912 176.000,161.600 178.504,161.600 179.033 C 161.600 179.298,161.375 179.601,161.100 179.707 C 160.825 179.813,160.355 180.732,160.056 181.750 C 159.757 182.767,159.382 183.600,159.223 183.600 C 159.065 183.600,158.682 184.095,158.372 184.700 C 158.062 185.305,157.125 186.481,156.290 187.314 C 155.117 188.482,154.615 189.440,154.085 191.514 C 153.708 192.991,153.220 194.328,153.000 194.485 C 152.365 194.939,152.462 220.487,153.100 220.700 C 153.375 220.792,153.600 221.115,153.600 221.419 C 153.600 222.496,154.899 225.805,155.445 226.120 C 155.750 226.296,156.000 226.691,156.000 226.997 C 156.000 227.304,156.330 227.790,156.734 228.077 C 157.137 228.365,157.791 229.455,158.188 230.500 C 158.584 231.545,159.040 232.400,159.200 232.400 C 159.360 232.400,159.802 233.390,160.182 234.600 C 160.563 235.810,161.038 236.800,161.237 236.800 C 161.437 236.800,161.606 237.025,161.613 237.300 C 161.633 238.053,162.851 239.326,164.197 240.000 C 165.729 240.768,167.632 242.671,168.400 244.203 C 169.074 245.549,170.347 246.767,171.100 246.787 C 171.375 246.794,171.600 246.963,171.600 247.163 C 171.600 247.362,172.590 247.837,173.800 248.218 C 175.010 248.598,176.000 249.065,176.000 249.255 C 176.000 249.445,176.255 249.600,176.568 249.600 C 177.400 249.600,179.704 250.891,180.316 251.700 C 180.607 252.085,181.096 252.400,181.403 252.400 C 181.709 252.400,182.104 252.650,182.280 252.955 C 182.595 253.501,185.904 254.800,186.981 254.800 C 187.285 254.800,187.608 255.025,187.700 255.300 C 187.829 255.685,190.649 255.800,200.000 255.800 C 209.351 255.800,212.172 255.685,212.300 255.300 C 212.392 255.025,212.701 254.800,212.987 254.800 C 213.928 254.800,217.600 253.486,217.600 253.150 C 217.600 252.969,218.185 252.522,218.900 252.156 C 219.615 251.791,220.326 251.278,220.480 251.016 C 220.635 250.755,221.490 250.300,222.380 250.006 C 223.271 249.712,224.000 249.326,224.000 249.147 C 224.000 248.969,224.990 248.535,226.200 248.183 C 227.410 247.831,228.400 247.376,228.400 247.172 C 228.400 246.967,228.642 246.800,228.939 246.800 C 229.235 246.800,230.090 246.073,230.839 245.185 C 232.576 243.125,235.125 240.576,237.185 238.839 C 238.073 238.090,238.800 237.235,238.800 236.939 C 238.800 236.642,238.967 236.400,239.172 236.400 C 239.376 236.400,239.831 235.410,240.183 234.200 C 240.535 232.990,240.969 232.000,241.147 232.000 C 241.326 232.000,241.712 231.271,242.006 230.380 C 242.300 229.490,242.755 228.635,243.016 228.480 C 243.278 228.326,243.791 227.615,244.156 226.900 C 244.522 226.185,244.969 225.600,245.150 225.600 C 245.486 225.600,246.800 221.928,246.800 220.987 C 246.800 220.701,247.025 220.392,247.300 220.300 C 247.966 220.078,248.032 196.524,247.367 196.085 C 247.130 195.928,246.697 194.660,246.406 193.267 C 246.115 191.874,245.634 190.492,245.338 190.195 C 245.042 189.899,244.799 189.419,244.798 189.129 C 244.797 188.838,244.181 187.930,243.429 187.111 C 242.676 186.292,241.945 185.257,241.803 184.811 C 241.662 184.365,241.395 184.000,241.210 184.000 C 241.025 184.000,240.638 183.079,240.350 181.954 C 240.061 180.829,239.594 179.819,239.313 179.711 C 239.031 179.603,238.800 179.298,238.800 179.033 C 238.800 178.504,236.488 176.000,236.000 176.000 C 235.601 176.000,232.400 172.799,232.400 172.400 C 232.400 171.890,229.885 169.600,229.324 169.600 C 229.036 169.600,228.800 169.441,228.800 169.246 C 228.800 169.051,227.901 168.598,226.802 168.239 C 225.333 167.758,224.135 166.910,222.278 165.034 C 219.793 162.525,219.701 162.474,216.676 161.986 C 214.984 161.714,213.600 161.335,213.600 161.145 C 213.600 160.955,207.480 160.800,200.000 160.800 C 192.520 160.800,186.400 160.948,186.400 161.128 M213.600 163.149 C 213.600 163.341,214.277 163.606,215.104 163.738 C 215.976 163.878,216.859 164.334,217.204 164.823 C 217.532 165.288,218.305 165.932,218.921 166.255 C 219.538 166.578,220.366 167.148,220.761 167.521 C 222.586 169.245,223.451 169.695,225.742 170.111 C 228.361 170.587,230.400 171.991,230.400 173.318 C 230.400 174.254,234.146 178.000,235.082 178.000 C 236.405 178.000,237.796 180.043,238.350 182.799 C 238.637 184.228,239.020 185.488,239.200 185.600 C 239.380 185.711,239.850 186.612,240.245 187.601 C 240.640 188.591,241.286 189.749,241.681 190.175 C 242.077 190.602,242.400 191.121,242.400 191.330 C 242.400 191.538,242.843 192.119,243.384 192.620 C 243.925 193.122,244.493 194.042,244.645 194.666 C 244.798 195.290,245.042 195.890,245.188 196.000 C 246.583 197.054,246.647 219.325,245.258 220.400 C 245.116 220.510,244.657 221.275,244.237 222.100 C 243.817 222.925,243.327 223.600,243.147 223.600 C 242.968 223.600,242.521 224.185,242.154 224.900 C 241.788 225.615,241.360 226.290,241.203 226.400 C 241.046 226.510,240.607 227.545,240.227 228.700 C 239.847 229.855,239.395 230.800,239.223 230.800 C 239.050 230.800,238.674 231.908,238.387 233.262 C 238.099 234.616,237.535 236.006,237.132 236.351 C 236.729 236.696,236.400 237.208,236.400 237.489 C 236.400 237.770,236.026 238.000,235.568 238.000 C 234.460 238.000,230.000 242.470,230.000 243.581 C 230.000 244.045,229.685 244.544,229.300 244.690 C 228.915 244.836,228.390 245.163,228.133 245.416 C 227.876 245.669,226.571 246.109,225.233 246.393 C 223.895 246.677,222.800 247.040,222.800 247.200 C 222.800 247.360,221.945 247.818,220.900 248.217 C 219.855 248.616,218.763 249.180,218.472 249.471 C 218.181 249.762,217.690 250.000,217.381 250.000 C 217.071 250.000,216.536 250.432,216.190 250.960 C 215.844 251.487,214.985 252.152,214.281 252.437 C 213.576 252.722,212.909 253.084,212.798 253.242 C 211.626 254.912,188.223 254.680,186.525 252.982 C 186.205 252.662,185.698 252.400,185.398 252.400 C 185.099 252.400,184.741 252.043,184.602 251.607 C 184.464 251.171,183.732 250.520,182.975 250.161 C 182.219 249.803,181.600 249.371,181.600 249.202 C 181.600 249.033,180.522 248.558,179.203 248.147 C 177.885 247.736,176.805 247.278,176.803 247.128 C 176.802 246.979,175.772 246.643,174.515 246.382 C 172.105 245.882,170.000 244.362,170.000 243.121 C 170.000 242.746,169.775 242.296,169.500 242.120 C 169.225 241.944,168.808 241.452,168.573 241.027 C 168.339 240.601,167.799 240.061,167.373 239.827 C 166.948 239.592,166.456 239.175,166.280 238.900 C 166.104 238.625,165.654 238.400,165.279 238.400 C 164.038 238.400,162.518 236.295,162.018 233.885 C 161.757 232.628,161.421 231.598,161.272 231.597 C 161.122 231.595,160.664 230.515,160.253 229.197 C 159.842 227.878,159.365 226.800,159.192 226.800 C 159.019 226.800,158.695 226.274,158.471 225.631 C 158.247 224.988,157.714 224.275,157.286 224.046 C 156.859 223.818,156.270 223.039,155.978 222.315 C 155.685 221.592,155.316 220.909,155.158 220.798 C 153.739 219.802,153.711 195.364,155.128 194.430 C 155.320 194.304,155.594 193.721,155.737 193.135 C 155.880 192.549,156.538 191.560,157.199 190.936 C 157.859 190.313,158.400 189.603,158.400 189.360 C 158.400 189.116,158.836 188.446,159.369 187.871 C 159.902 187.296,160.466 186.423,160.622 185.932 C 160.778 185.440,161.130 184.813,161.404 184.538 C 161.679 184.264,162.031 183.188,162.187 182.146 C 162.496 180.087,164.072 178.000,165.318 178.000 C 166.254 178.000,170.000 174.254,170.000 173.318 C 170.000 171.993,172.042 170.604,174.800 170.053 C 176.230 169.768,177.461 169.365,177.536 169.159 C 177.611 168.952,178.196 168.512,178.836 168.181 C 179.476 167.850,180.000 167.326,180.000 167.017 C 180.000 166.707,180.344 166.345,180.764 166.211 C 181.185 166.078,181.811 165.537,182.157 165.010 C 182.601 164.331,183.313 163.972,184.592 163.780 C 185.587 163.631,186.400 163.350,186.400 163.155 C 186.400 162.955,192.361 162.800,200.000 162.800 C 207.480 162.800,213.600 162.957,213.600 163.149 M190.498 174.428 C 188.392 174.632,186.968 174.975,186.569 175.374 C 186.225 175.718,185.726 176.000,185.461 176.000 C 184.843 176.000,182.819 178.297,182.350 179.531 C 182.152 180.052,181.633 180.571,181.195 180.685 C 180.758 180.800,180.400 181.013,180.400 181.159 C 180.400 181.306,179.597 181.662,178.616 181.952 C 175.949 182.740,173.600 185.355,173.600 187.537 C 173.600 187.965,173.330 188.418,173.000 188.545 C 172.670 188.671,172.400 189.038,172.400 189.360 C 172.400 189.683,171.995 190.073,171.500 190.229 C 169.752 190.777,167.600 193.937,167.600 195.954 C 167.600 196.383,167.395 196.802,167.145 196.885 C 166.460 197.113,166.416 216.471,167.100 216.700 C 167.386 216.795,167.600 217.534,167.600 218.425 C 167.600 220.587,168.668 223.041,170.261 224.537 C 173.308 227.401,173.429 227.555,174.276 229.677 C 174.908 231.260,176.169 232.754,176.900 232.787 C 177.065 232.794,177.560 233.160,178.000 233.600 C 178.440 234.040,179.166 234.400,179.613 234.400 C 180.059 234.400,180.522 234.652,180.640 234.961 C 180.759 235.269,181.202 235.612,181.626 235.723 C 182.049 235.833,182.523 236.256,182.679 236.662 C 183.009 237.526,184.400 238.768,185.057 238.787 C 185.309 238.794,185.614 239.059,185.735 239.375 C 186.011 240.094,188.458 240.795,190.700 240.798 C 191.635 240.799,192.400 240.980,192.400 241.200 C 192.400 241.453,195.200 241.600,200.000 241.600 C 204.800 241.600,207.600 241.453,207.600 241.200 C 207.600 240.980,208.378 240.800,209.329 240.800 C 211.159 240.800,214.800 239.741,214.800 239.209 C 214.800 239.035,215.159 238.799,215.598 238.685 C 216.037 238.570,216.509 238.180,216.648 237.818 C 217.098 236.645,219.117 234.920,220.852 234.226 C 223.034 233.353,225.361 231.014,226.244 228.807 C 226.643 227.811,227.932 226.100,229.264 224.801 C 231.753 222.373,232.800 220.226,232.800 217.550 C 232.800 216.697,232.980 216.000,233.200 216.000 C 233.456 216.000,233.600 212.533,233.600 206.400 C 233.600 200.267,233.456 196.800,233.200 196.800 C 232.980 196.800,232.800 196.462,232.800 196.049 C 232.800 193.951,231.029 191.353,228.821 190.211 C 228.150 189.864,227.600 189.314,227.600 188.990 C 227.600 188.665,227.427 188.400,227.215 188.400 C 227.004 188.400,226.628 187.648,226.381 186.728 C 225.831 184.687,224.198 183.092,221.688 182.144 C 220.650 181.751,219.562 181.198,219.271 180.915 C 218.981 180.632,218.579 180.400,218.379 180.400 C 218.179 180.400,217.902 179.950,217.764 179.400 C 217.626 178.850,217.365 178.400,217.184 178.400 C 217.002 178.400,216.742 178.048,216.606 177.619 C 216.362 176.850,214.360 175.600,213.372 175.600 C 213.094 175.600,212.807 175.420,212.733 175.199 C 212.402 174.207,197.961 173.707,190.498 174.428 M207.300 176.467 C 209.005 176.726,210.400 177.087,210.400 177.269 C 210.400 177.451,210.826 177.600,211.346 177.600 C 211.946 177.600,213.109 178.384,214.521 179.741 C 215.746 180.918,217.345 182.126,218.074 182.424 C 218.803 182.722,219.638 183.199,219.929 183.483 C 220.219 183.767,220.696 184.000,220.989 184.000 C 221.678 184.000,224.285 186.608,224.606 187.619 C 224.742 188.049,224.986 188.400,225.147 188.400 C 225.308 188.400,225.683 189.074,225.981 189.897 C 226.279 190.721,227.266 192.116,228.176 192.997 C 229.950 194.717,230.800 196.268,230.800 197.785 C 230.800 198.307,231.025 198.808,231.300 198.900 C 231.987 199.129,232.025 215.890,231.339 216.314 C 231.086 216.471,230.751 217.452,230.595 218.493 C 230.363 220.043,229.923 220.796,228.162 222.658 C 226.979 223.909,225.907 225.262,225.779 225.666 C 225.651 226.070,225.414 226.400,225.253 226.400 C 225.092 226.400,224.719 227.069,224.423 227.886 C 223.801 229.607,221.174 232.291,219.767 232.644 C 219.235 232.778,218.800 233.017,218.800 233.176 C 218.800 233.335,218.305 233.716,217.700 234.024 C 217.095 234.331,215.846 235.359,214.925 236.307 C 213.551 237.721,212.830 238.117,210.925 238.505 C 209.646 238.765,208.471 239.163,208.314 239.389 C 207.920 239.956,192.071 239.948,191.685 239.380 C 191.528 239.149,190.436 238.742,189.258 238.477 C 187.600 238.104,186.741 237.609,185.458 236.289 C 184.546 235.350,183.305 234.331,182.700 234.024 C 182.095 233.716,181.600 233.315,181.600 233.132 C 181.600 232.950,181.351 232.800,181.046 232.800 C 179.616 232.800,176.294 230.067,175.819 228.500 C 175.669 228.005,175.398 227.600,175.216 227.600 C 175.035 227.600,174.772 227.144,174.633 226.587 C 174.493 226.031,173.525 224.726,172.481 223.687 C 170.465 221.682,169.600 220.158,169.600 218.615 C 169.600 218.093,169.375 217.592,169.100 217.500 C 168.428 217.276,168.372 198.518,169.042 198.085 C 169.286 197.928,169.605 197.142,169.753 196.339 C 169.928 195.386,170.640 194.233,171.796 193.026 C 172.772 192.007,173.892 190.598,174.285 189.894 C 174.678 189.191,175.225 188.373,175.500 188.079 C 175.775 187.784,176.002 187.331,176.004 187.071 C 176.010 186.403,178.427 184.159,179.500 183.826 C 179.995 183.672,180.400 183.414,180.400 183.253 C 180.400 183.092,181.075 182.717,181.900 182.419 C 182.725 182.121,184.210 181.017,185.200 179.967 C 186.190 178.917,187.540 177.927,188.200 177.767 C 188.860 177.608,189.490 177.345,189.600 177.184 C 190.297 176.166,202.164 175.685,207.300 176.467 " stroke="none" fill="#c4ccdc" fill-rule="evenodd"></path></g></svg>